# xmcd
#
# Track frame offsets: 
#        150
#        28438
#        59670
#        87341
#        172381
#
# Disc length: 2811 seconds
#
# Revision: 0
# Processed by: cddbd v1.5.2PL0 Copyright (c) Steve Scherf et al.
# Submitted via: ExactAudioCopy v0.95b4
#
DISCID=4b0af905
DTITLE=Derek and the Dominos - 1970-10-23 - Live At The Fillmore - CD2
DYEAR=1970
DGENRE=Blues
TTITLE0=Bottle Of Red Wine
TTITLE1=Presence Of The Lord
TTITLE2=Little Wing
TTITLE3=Let It Rain
TTITLE4=Crossroads
EXTD=
EXTT0=
EXTT1=
EXTT2=
EXTT3=
EXTT4=
PLAYORDER=
